<?xml version="1.0" standalone="no"?>
<!DOCTYPE svg PUBLIC "-//W3C//DTD SVG 20010904//EN"
 "http://www.w3.org/TR/2001/REC-SVG-20010904/DTD/svg10.dtd">
<svg version="1.0" xmlns="http://www.w3.org/2000/svg"
 width="512.000000pt" height="512.000000pt" viewBox="0 0 512.000000 512.000000"
 preserveAspectRatio="xMidYMid meet">
<metadata>
Created by potrace 1.11, written by Peter Selinger 2001-2013
</metadata>
<g transform="translate(0.000000,512.000000) scale(0.100000,-0.100000)"
fill="#000000" stroke="none">
<path d="M240 5101 c-67 -24 -101 -45 -141 -88 -74 -78 -104 -166 -94 -268 20
-211 242 -356 437 -287 l57 20 133 -134 134 -135 -1 -117 c-1 -103 -5 -125
-30 -187 -30 -76 -41 -188 -26 -257 6 -27 5 -38 -3 -39 -178 -13 -337 -140
-413 -331 -15 -38 -17 -100 -20 -568 -3 -563 -2 -584 49 -685 21 -40 80 -119
108 -143 40 -35 120 -81 159 -93 36 -11 42 -16 37 -33 -2 -12 -13 -52 -24 -91
-25 -88 -23 -243 3 -330 23 -79 75 -178 123 -238 36 -45 38 -51 37 -118 l0
-69 -134 -135 -133 -134 -37 15 c-88 39 -229 22 -313 -37 -200 -141 -192 -433
16 -566 125 -81 314 -58 416 49 89 93 122 252 76 360 l-16 37 160 161 c88 89
161 169 161 178 1 9 2 29 2 44 1 16 2 28 3 28 1 0 21 -7 45 -16 64 -23 180
-41 242 -39 l53 3 34 -67 c70 -135 215 -248 369 -287 264 -66 543 64 660 309
22 45 44 109 50 141 7 35 11 203 11 403 l0 343 325 1 c179 1 330 3 335 4 6 1
15 3 22 4 16 2 277 261 293 292 12 22 14 125 15 552 0 348 -3 534 -10 553 -14
38 -256 282 -297 300 -20 9 -68 14 -127 14 l-94 0 -3 28 c-10 73 -1 651 10
700 17 69 78 161 136 205 232 178 564 40 603 -249 7 -54 0 -149 -12 -161 -2
-3 -26 3 -53 13 -69 27 -184 25 -240 -4 -118 -61 -183 -162 -184 -286 -2 -173
142 -315 316 -311 185 5 318 157 302 348 -5 63 -3 74 22 121 16 28 35 75 42
105 16 62 33 73 120 73 195 0 322 -209 235 -385 -19 -40 -35 -58 -59 -68 -53
-22 -159 -136 -195 -211 -18 -37 -32 -75 -32 -85 0 -25 -10 -38 -45 -56 -93
-49 -157 -162 -148 -262 22 -244 315 -347 478 -169 116 126 87 333 -59 424
-34 20 -34 21 -18 53 28 58 70 103 124 132 46 26 63 30 133 30 60 0 90 -5 120
-20 60 -29 120 -95 143 -156 20 -52 21 -73 21 -544 0 -461 -2 -493 -20 -541
-25 -67 -75 -123 -135 -154 -63 -32 -187 -35 -246 -6 -34 16 -37 21 -30 45 15
54 6 174 -17 223 -59 129 -176 200 -317 194 -125 -5 -234 -79 -287 -194 -34
-73 -31 -199 6 -274 35 -71 87 -123 157 -157 46 -22 69 -26 140 -26 71 0 94 4
137 26 l52 25 38 -23 c21 -13 59 -30 85 -39 44 -14 50 -21 77 -77 95 -201 38
-431 -141 -563 -166 -122 -400 -114 -557 19 l-33 27 22 45 c65 135 3 302 -138
371 -26 13 -59 19 -112 18 -64 0 -83 -4 -129 -29 -96 -53 -151 -148 -145 -254
3 -71 25 -121 75 -176 50 -54 125 -87 199 -87 52 0 57 -3 113 -53 32 -30 83
-66 113 -82 30 -15 54 -33 54 -38 0 -11 -45 -81 -64 -101 -147 -148 -387 -156
-533 -17 -72 68 -123 172 -123 251 0 45 -24 98 -50 112 -50 27 -118 9 -139
-37 -27 -60 -5 -197 52 -313 37 -75 146 -192 219 -234 113 -65 251 -93 378
-74 183 27 348 145 435 310 l29 56 67 -2 c43 -1 97 6 155 21 121 31 118 31
120 6 1 -13 2 -32 3 -42 0 -11 73 -92 161 -181 l160 -161 -15 -36 c-47 -113
-16 -266 75 -361 103 -109 289 -129 420 -47 143 91 198 279 125 430 -73 152
-256 230 -410 176 l-54 -19 -133 134 -133 134 0 71 c0 69 1 73 42 126 135 174
174 402 103 611 -16 49 -16 54 -1 59 171 56 289 182 334 356 22 85 23 1003 1
1097 -49 210 -210 354 -426 379 -4 1 -4 11 -2 24 19 81 6 213 -29 292 -20 43
-23 67 -22 168 l0 118 134 134 133 134 37 -15 c49 -22 158 -26 214 -9 67 20
100 40 147 87 201 204 69 555 -214 572 -171 11 -308 -88 -353 -253 -15 -55
-10 -156 11 -203 l16 -37 -160 -161 c-121 -122 -160 -168 -162 -188 -1 -15 -2
-43 -3 -62 -1 -19 -3 -38 -4 -42 0 -4 -20 0 -43 8 -71 25 -179 34 -262 22 -14
-2 -23 9 -36 47 -64 181 -206 313 -400 371 -51 15 -201 21 -256 10 -193 -38
-373 -196 -433 -379 -32 -99 -34 -121 -34 -483 l0 -343 -344 -3 -343 -3 -147
-148 -148 -147 0 -560 0 -560 135 -136 c74 -74 147 -142 162 -150 18 -9 60
-14 128 -14 l101 0 -3 -363 -3 -362 -31 -65 c-79 -165 -246 -251 -419 -215
-108 23 -191 78 -244 164 l-30 50 63 35 c35 19 87 57 116 85 50 47 55 49 109
49 146 0 269 119 273 264 5 192 -172 327 -357 273 -73 -21 -154 -97 -178 -167
-22 -65 -17 -161 11 -215 l22 -41 -36 -31 c-90 -80 -233 -119 -360 -99 -262
41 -435 310 -364 567 28 101 52 135 108 156 26 10 65 28 86 40 l39 22 46 -26
c40 -23 58 -26 136 -26 70 0 100 5 136 21 198 92 257 336 123 511 -86 113
-266 153 -398 89 -138 -68 -218 -240 -177 -382 8 -29 7 -32 -27 -49 -137 -65
-304 -2 -371 139 l-31 64 2 509 3 508 23 45 c53 101 128 150 238 158 62 4 79
1 125 -20 78 -37 139 -99 154 -159 5 -20 0 -28 -25 -42 -41 -24 -77 -63 -103
-112 -17 -32 -22 -57 -22 -125 0 -74 3 -91 26 -130 92 -156 290 -191 427 -76
87 74 118 213 70 317 -29 62 -64 100 -125 136 -31 18 -43 31 -43 48 0 34 -65
156 -111 208 -22 26 -67 63 -99 83 -72 44 -103 98 -106 185 -5 124 63 224 183
268 79 29 193 12 193 -28 0 -28 39 -130 61 -163 16 -22 18 -35 11 -85 -15
-108 18 -203 95 -274 129 -119 314 -113 435 14 147 154 102 400 -91 494 -73
36 -180 38 -253 6 l-47 -21 -9 41 c-26 128 18 268 114 357 227 212 595 77 630
-231 8 -73 24 -108 54 -124 46 -24 85 -19 119 15 30 30 30 33 26 108 -7 145
-59 258 -169 367 -64 63 -163 129 -213 140 -112 25 -159 31 -218 28 -242 -13
-449 -173 -525 -406 -11 -36 -14 -38 -43 -31 -58 13 -170 6 -229 -15 -32 -11
-58 -17 -59 -13 -1 4 -2 27 -4 52 -1 25 -3 53 -4 62 0 9 -73 89 -161 177
l-159 161 19 54 c20 58 21 152 2 212 -12 38 -54 106 -84 134 -33 32 -97 71
-132 82 -56 17 -158 16 -206 -1z m175 -205 c84 -55 82 -176 -4 -233 -42 -28
-82 -29 -137 -2 -100 48 -93 199 10 245 37 17 97 12 131 -10z m4439 1 c82 -54
83 -179 2 -232 -39 -26 -96 -29 -136 -8 -132 68 -81 266 67 259 22 -2 53 -10
67 -19z m-3147 -1134 c128 -60 39 -253 -91 -199 -62 26 -87 105 -51 160 34 51
87 65 142 39z m1790 7 c64 -23 92 -108 55 -166 -18 -30 -69 -53 -105 -48 -118
15 -136 180 -23 213 42 12 39 12 73 1z m-369 -644 l92 -94 0 -473 0 -473 -95
-93 -95 -93 -472 0 -473 0 -92 92 -93 93 0 475 0 475 92 92 93 93 475 0 475 0
93 -94z m-1935 -127 c51 -62 -14 -146 -90 -114 -50 21 -59 80 -17 122 20 20
31 24 57 19 18 -3 40 -16 50 -27z m2849 -1 c32 -37 14 -101 -33 -117 -83 -29
-139 70 -73 127 33 28 76 24 106 -10z m-2764 -764 c88 -52 92 -171 7 -224
-113 -70 -246 62 -176 176 34 56 116 80 169 48z m2686 -3 c62 -41 81 -102 50
-167 -44 -91 -171 -98 -224 -11 -68 111 67 248 174 178z m-2136 -817 c50 -35
44 -106 -11 -129 -35 -15 -52 -11 -84 18 -32 28 -30 72 3 102 31 29 60 32 92
9z m1559 -11 c34 -45 19 -104 -30 -122 -24 -9 -70 3 -87 24 -42 50 3 130 69
121 19 -2 41 -13 48 -23z m-2988 -941 c122 -61 96 -234 -39 -257 -109 -18
-199 110 -141 203 42 66 114 88 180 54z m4471 -17 c78 -75 53 -203 -46 -235
-124 -41 -230 98 -158 207 44 69 147 82 204 28z"/>
<path d="M2355 2970 c-39 -15 -57 -50 -146 -286 -50 -131 -104 -274 -121 -316
-43 -111 -46 -147 -14 -185 61 -72 143 -44 182 62 l11 30 116 1 c64 0 120 -2
125 -5 5 -3 14 -22 21 -42 23 -71 84 -101 146 -72 32 15 55 53 55 91 0 32
-252 678 -273 699 -25 25 -72 36 -102 23z m50 -417 c31 -73 30 -78 -10 -77
-19 1 -38 4 -41 7 -5 4 27 107 33 107 2 0 10 -17 18 -37z"/>
<path d="M2935 2970 c-11 -4 -29 -18 -40 -30 -19 -21 -20 -38 -23 -375 l-3
-354 29 -32 c38 -43 100 -45 140 -5 l27 26 0 360 0 360 -26 26 c-28 27 -69 37
-104 24z"/>
<path d="M2278 3753 c-30 -19 -36 -30 -44 -78 -4 -25 1 -40 21 -63 32 -38 72
-48 118 -28 69 28 73 137 6 171 -36 19 -68 18 -101 -2z"/>
<path d="M2765 1522 c-11 -2 -32 -16 -47 -30 -40 -37 -39 -93 1 -133 75 -74
194 2 159 102 -14 42 -67 70 -113 61z"/>
</g>
</svg>
