<?xml version="1.0" standalone="yes"?>
<svg width="512" height="512">
<path style="fill:#ffffff; stroke:none;" d="M0 0L0 26L1 26C3.93752 13.633 13.6329 3.93747 26 1L0 0z"/>
<path style="fill:#000000; stroke:none;" d="M71 151C52.7869 151.378 37.3834 163.549 30.3372 180C24.3906 193.884 27 211.208 27 226C27 262.557 15.0057 323.891 63 335C56.1496 350.454 55.6936 370.339 62.2847 386C66.552 396.14 79.7508 407.19 75.3966 419C72.8415 425.93 56.1718 443.466 49 445.444C42.8415 447.142 34.0044 443.091 27 444.286C7.41869 447.627 -4.0515 468.215 0.760802 487C8.19407 516.017 49.5776 521.262 64.0949 495C67.8482 488.21 68.5221 480.621 67.9066 473C67.5471 468.548 64.6408 464.144 67.4113 460C75.9719 447.195 96.6385 438.882 97 422L131 427C139.21 469.577 202.8 473.326 227.826 445.985C252.074 419.495 244 375.064 244 342L291 342C297.314 342 306.068 343.543 312 341.142C321.234 337.404 334.913 322.404 340.106 314C346.612 303.472 342 279.225 342 267L342 221C342 214.686 343.543 205.932 341.142 200C338.308 193 330.226 187.226 325 182C321.165 178.165 317.154 172.945 312 170.858C305.562 168.252 295.872 170 289 170L289 121C289 106.903 288.958 93.073 299.104 82.0038C327.073 51.4903 369.554 81.3806 362 118C327.422 98.5358 294.281 150.286 328 172.031C332.364 174.845 337.815 176.708 343 176.96C347.022 177.155 351.116 177.097 355 175.957C384.562 167.276 372.007 136.404 384.988 116.144C392.761 104.011 412.865 117.948 417.468 126C428.109 144.616 413.404 152.68 402.04 164.04C394.595 171.483 393.6 180.695 388.066 188.787C384.925 193.379 378.78 195.386 375.301 200.039C366.528 211.772 368.935 229.329 380.015 238.671C411.448 265.172 447.859 209.014 410 191C420.974 170.099 451.032 162.532 461.906 189C465.433 197.585 464 207.906 464 217L464 270C464 279.875 465.611 290.964 460.865 300C455.561 310.098 433.859 323.968 423.693 311.351C421.544 308.684 423.28 304.079 423.405 301C423.624 295.589 422.357 289.902 420.099 285C410.313 263.759 379.212 260.439 364.329 278.015C353.986 290.228 353.691 309.749 364.213 321.996C370.702 329.549 380.975 334.137 391 333.625C403.444 332.99 416.075 325.266 426.084 338.133C446.654 364.578 421.691 401.047 393 405.561C378.449 407.85 369.18 399.571 357 394C359.105 386.636 361.545 380.901 360.907 373C357.754 333.994 294.744 346.53 306.043 385C307.397 389.609 309.587 393.541 313.043 396.907C321.046 404.699 329.293 401.715 338 406.027C346.338 410.156 351.643 418.247 361 421C345.706 443.668 315.376 452.249 296.927 427C291.316 419.32 289.051 385.98 273.058 396.742C265.527 401.81 268.237 413.691 270.156 421C275.622 441.821 292.906 458.274 314 462.714C333.382 466.793 354.817 461.107 368.907 446.91C373.854 441.925 376.724 431.642 382.39 428.028C385.741 425.89 391.209 427.197 395 426.83C401.938 426.159 408.328 423.784 415 422C415.362 438.882 436.028 447.195 444.589 460C447.359 464.144 444.453 468.548 444.093 473C443.478 480.62 444.152 488.21 447.905 495C462.539 521.473 505.097 515.928 511.482 486C515.452 467.392 504.362 447.589 485 444.286C477.996 443.091 469.158 447.142 463 445.444C455.828 443.466 439.158 425.93 436.603 419C432.188 407.025 445.394 396.284 449.547 386C456.141 369.672 455.242 351.203 449 335C496.847 323.899 485 262.355 485 226C485 210.584 487.348 193.48 481.127 179C474.324 163.164 458.417 151.361 441 151C441.91 143.796 442.858 136.202 441.331 129C438.987 117.948 430.238 100.783 438.318 90C443.109 83.6055 455.21 68.7042 463 66.5563C468.839 64.9465 477.385 68.8419 484 67.865C503.602 64.9698 514.083 46.6876 511.816 28C508.681 2.16672 475.23 -8.71698 456.004 7.3287C446.703 15.0907 443.71 25.3188 444.015 37C444.127 41.2979 447.239 47.026 445.212 51C436.143 68.7814 415 72.5189 415 95C408.357 92.8392 402.05 91.0016 395 91.0016C391.827 91.0016 386.283 92.6305 383.702 90.3573C379.739 86.8663 378.394 78.5421 375.452 74C368.866 63.8322 358.376 55.687 347 51.544C339.433 48.7882 331.029 47.6878 323 48.0394C316.169 48.3385 309.239 49.9684 303 52.7315C257.38 72.9365 268 129.502 268 170L221 170C214.687 170 205.964 168.464 200 170.742C190.87 174.23 176.971 189.84 171.728 198C164.477 209.285 169 232.98 169 246L169 290C169 296.95 167.72 305.491 170.653 312C173.638 318.627 180.946 323.946 186 329C190.071 333.071 194.482 339.15 200 341.258C206.483 343.734 216.12 342 223 342C223 365.544 229.056 399.302 218.673 421C203.948 451.772 166.957 446.439 151 421C159.788 417.34 165.752 410.051 174 406.024C184.507 400.895 194.142 404.693 202.084 392.999C214.778 374.308 200.953 347.69 178 348.595C162.301 349.214 150.52 361.18 150.572 377C150.59 382.5 155.476 390.223 151.722 394.896C129.429 422.646 86.6247 397.172 79.76 370C75.6858 353.873 83.5499 330.279 103 329.502C114.237 329.054 121.798 335.799 134 331.451C154.35 324.201 161.703 297.197 149.072 280.004C136.154 262.421 107.489 262.077 94.6373 280C87.5375 289.901 87.8033 300.673 90 312C85.1037 313.336 80.1929 315.916 75 315.62C36.633 313.437 47 256.506 47 231C47 217.282 44.2325 199.569 50.8248 187C63.912 162.048 90.5175 171.533 102 191C64.4137 207.532 98.2891 264.07 130.985 239.387C142.466 230.72 145.141 212.843 137.15 201C133.926 196.223 129.345 194.101 125.279 190.367C119.885 185.414 118.735 175.112 114.1 169C103.461 154.97 81.0985 146.511 94.9691 125C99.8777 117.388 119.34 104.405 126.836 116.225C139.674 136.471 127.134 166.267 156 175.64C159.944 176.921 163.882 177.091 168 176.985C173.279 176.85 178.473 175.258 183 172.521C217.518 151.653 184.194 96.7702 150 118C140.745 88.8029 171.443 59.5685 200 72.5178C210.139 77.1151 217.838 86.3802 220.957 97C222.355 101.759 221.605 107.481 224.303 111.811C227.639 117.164 236.032 118.135 240.431 113.581C245.934 107.884 243.182 96.7571 241.36 90C235.207 67.1922 215.147 51.129 192 48.2863C171.496 45.7681 151.195 54.7647 138.681 71C135.126 75.6114 132.143 88.2119 127.57 90.8827C124.594 92.6212 118.409 90.9322 115 91.0146C108.718 91.1665 102.916 93.0758 97 95C97 72.5189 75.8568 68.7813 66.7878 51C64.7609 47.0259 67.8731 41.298 67.9853 37C68.2903 25.3188 65.2967 15.0907 55.9961 7.3287C36.7701 -8.71692 3.31889 2.16675 0.184414 28C-2.08304 46.6876 8.39786 64.9698 28 67.865C34.6146 68.8419 43.1613 64.9465 49 66.5563C56.7898 68.7042 68.8908 83.6055 73.6821 90C81.3577 100.244 73.4078 116.517 70.8989 127C69.0861 134.575 69.589 143.4 71 151z"/>
<path style="fill:#ffffff; stroke:none;" d="M42 0L42 1C56.5513 4.45786 67.8354 17.9391 67.9961 33C68.0548 38.4995 63.8829 47.2618 66.6435 52C76.2349 68.4623 96.9977 73.7652 97 95C103.725 93.4441 109.985 91.0077 117 91.0077C120.079 91.0077 125.64 92.9007 128.272 90.9576C132.668 87.7131 135.035 76.7297 138.681 72C151.109 55.8761 171.343 45.4691 192 48.4283C214.304 51.6234 234.081 67.1367 240.795 89C242.993 96.1588 245.954 107.702 239.657 113.58C234.562 118.336 226.662 115.977 223.819 109.96C221.769 105.622 222.291 100.542 220.957 96C217.503 84.2425 208.718 74.796 197 71.0293C170.025 62.3585 137.981 89.5161 150 118C185.667 101.257 217.341 151.181 182 172.521C165.648 182.395 143.608 174.752 136.478 157C133.508 149.604 135.656 143.364 134.736 136C134.064 130.62 129.843 121.128 127.298 116.225C120.733 103.579 98.7553 117.445 94.3634 125C81.4735 147.174 103.127 155.511 114.1 170C118.573 175.906 119.636 185.319 124.513 190.367C128.592 194.589 133.715 196.903 137.15 202C144.825 213.389 141.986 228.781 131.96 237.79C114.258 253.697 84.5308 240.079 85.26 216C85.5934 204.994 93.2091 196.587 102 191C93.2866 170.182 64.1595 162.961 51.3634 185C44.7272 196.43 47 212.325 47 225C47 247.1 42.6152 274.644 48.7878 296C54.3059 315.092 73.9666 318.176 90 312C88.5809 301.011 87.5156 291.904 93.966 282C106.862 262.2 135.39 262.243 149.072 281.001C161.812 298.467 153.213 324.25 133 331.451C120.95 335.745 113.929 328.528 103 328.914C82.6215 329.633 75.5972 354.523 79.76 371C85.6956 394.495 108.167 409.269 132 405.076C138.914 403.86 148.221 400.768 152.628 394.896C155.908 390.525 151.274 383.917 150.924 379C149.957 365.395 159.221 351.908 173 349.318C196.605 344.881 215.901 371.583 202.084 392C193.741 404.328 184.073 400.618 173 406.024C165.393 409.737 158.482 416.629 151 421C163.027 448.516 202.878 449.941 217.64 424C223.304 414.048 223 402.085 223 391L223 342C216.394 342 207.229 343.637 201 341.258C195.482 339.15 191.071 333.071 187 329C181.665 323.665 173.801 317.989 170.653 311C167.835 304.745 169 296.676 169 290L169 247C169 233.923 164.767 211.719 171.14 200C175.83 191.375 191.774 174.267 201 170.742C206.964 168.464 215.687 170 222 170L268 170C268 130.593 257.733 75.22 301 54.1096C306.813 51.2731 312.625 49.586 319 48.5903C327.618 47.2443 336.756 48.4375 345 51.206C357.182 55.2971 368.482 64.2382 375.452 75C378.138 79.147 379.771 88.1554 383.702 90.9576C386.404 92.8841 391.869 91.0077 395 91.0077C402.015 91.0077 408.275 93.4441 415 95C415.002 73.7651 435.765 68.4623 445.357 52C448.117 47.2619 443.945 38.4995 444.004 33C444.165 17.9391 455.449 4.45786 470 1C459.972 -3.2077 442.896 0 432 0L345 0L42 0M486 0L486 1C498.367 3.93747 508.063 13.633 511 26L512 26L512 0L486 0M29.0008 21.7423C13.1808 27.8116 23.1257 52.3527 38.9992 46.2577C54.8435 40.174 44.7971 15.6821 29.0008 21.7423M474 21.5725C457.665 26.2596 465.679 51.0318 482 46.5663C498.311 42.1036 490.438 16.8558 474 21.5725M0 42L0 470L1 470C4.52719 455.15 17.6637 444.247 33 443.865C38.0623 443.739 44.3569 446.973 49 446.068C56.235 444.657 71.7246 427.495 74.9722 421C81.5421 407.86 65.8376 394.44 61.4606 383C55.3614 367.058 57.8961 350.686 63 335C17.0383 320.019 27 269.155 27 231C27 215.727 24.252 197.53 29.544 183C35.8649 165.644 52.2467 151.818 71 151C70.0454 143.447 69.1003 135.515 70.8989 128C73.4826 117.204 80.5842 102.224 74.9722 91C71.7245 84.5046 56.235 67.3431 49 65.9321C39.6065 64.1001 31.2821 70.0983 21 65.662C9.32224 60.6236 6.22228 51.8391 0 42M511 42C507.473 56.8496 494.336 67.7534 479 68.135C474.02 68.2589 466.393 64.5634 462 66.213C454.229 69.131 443.261 82.4036 438.318 89C429.689 100.517 439.405 119.161 441.535 131C442.74 137.692 441.526 144.334 441 151C459.58 151.81 476.16 165.803 482.302 183C487.557 197.717 485 215.571 485 231C485 269.001 494.8 319.971 449 335C453.573 351.761 456.348 367.103 449.934 384C445.649 395.29 430.474 407.893 437.028 421C440.275 427.495 455.765 444.657 463 446.068C467.643 446.973 473.938 443.739 479 443.865C494.336 444.247 507.473 455.15 511 470L512 470L512 167L512 80C512 69.1039 515.208 52.0275 511 42M289 170C295.603 170 304.81 168.352 311 170.858C316.534 173.098 320.881 178.881 325 183C330.226 188.226 338.308 193.999 341.142 201C343.543 206.932 342 215.686 342 222L342 267C342 279.006 346.501 302.653 340.106 313C334.761 321.65 320.499 337.296 311 341.142C305.068 343.543 296.314 342 290 342L244 342C244 373.338 251.256 414.506 231.101 441C205.531 474.613 144.718 470.334 131 427L97 422C96.2181 438.827 74.432 446.632 66.6435 460C63.8829 464.738 68.0548 473.501 67.9961 479C67.8354 494.061 56.5513 507.542 42 511L42 512L470 512L470 511C455.449 507.542 444.165 494.061 444.004 479C443.945 473.501 448.117 464.738 445.357 460C437.568 446.632 415.782 438.827 415 422C407.89 423.209 401.27 426.127 394 426.83C390.376 427.181 384.771 425.84 381.637 428.028C376.367 431.707 373.563 441.127 368.907 445.961C355.207 460.183 334.287 466.773 315 462.714C294.336 458.365 276.781 442.201 270.721 422C268.316 413.982 265.544 402.162 274.019 396.743C288.93 387.209 290.904 418.828 295.548 426C311.527 450.676 348.722 446.953 361 421C352.611 417.381 346.917 409.948 339 406.027C333.179 403.144 326.057 404.908 320 401.467C316.006 399.198 312.281 395.761 309.649 392C290.084 364.046 333.028 332.61 354.62 359.015C357.413 362.43 359.544 366.679 360.481 371C362.349 379.608 358.437 385.911 357 394C368.012 401.498 379.118 407.519 393 405.711C423.233 401.772 443.4 367.694 427.876 340.019C419.174 324.505 403.748 332.887 391 333.405C380.577 333.829 370.883 328.828 364.213 320.999C353.978 308.985 354.321 290.99 364.329 279.004C379.655 260.647 409.891 263.843 420.099 286C423.44 293.251 419.495 305.882 423.067 311.351C431.831 324.769 455.951 310.352 460.865 301C465.612 291.965 464 280.874 464 271L464 216C464 206.551 465.52 195.819 461.481 187C450.643 163.332 418.195 168.79 410 191C417.221 195.932 423.982 201.968 425.682 211C430.637 237.319 398.651 255.831 379.04 236.907C369.157 227.369 367.039 212.302 375.301 201.015C378.703 196.367 383.682 194.387 387.437 190.367C392.499 184.945 393.635 175.205 398.518 169C409.637 154.87 429.19 147.844 418.004 126C413.588 117.378 394.801 105.104 385.589 114.564C372.388 128.119 381.868 150.384 370.471 164.996C367.195 169.196 362.906 172.469 358 174.535C314.096 193.032 296.24 116.298 343 114.04C350.006 113.702 355.6 115.389 362 118C372.143 81.905 327.767 52.1085 300.043 80.0401C289.047 91.1187 289 105.436 289 120L289 170z"/>
<path style="fill:#000000; stroke:none;" d="M233 134.748C219.509 134.993 220.308 155.532 233.999 154.93C246.923 154.361 245.787 134.515 233 134.748z"/>
<path style="fill:#ffffff; stroke:none;" d="M162.015 135.742C149.285 140.728 157.603 160.385 169.96 155.142C182.263 149.922 174.488 130.857 162.015 135.742M342.015 135.742C329.285 140.728 337.603 160.385 349.96 155.142C362.13 149.978 354.468 130.865 342.015 135.742M209 191.028C180.662 205.197 190 246.882 190 273C190 281.339 187.052 296.791 191.603 304C194.953 309.306 203.034 318.197 209 320.397C214.667 322.486 223.015 321 229 321L274 321C282.293 321 296.502 323.721 304 319.972C309.38 317.282 318.298 308.691 320.397 303C322.581 297.076 321 288.262 321 282L321 237C321 228.88 323.834 214.028 319.397 207C316.047 201.694 307.966 192.803 302 190.603C296.333 188.514 287.985 190 282 190L239 190C230.707 190 216.498 187.279 209 191.028M110.133 211.029C102.475 215.383 109.231 227.096 116.867 222.817C124.526 218.524 117.721 206.714 110.133 211.029M395.059 211.032C386.983 215.335 394.303 227.24 401.772 222.678C408.778 218.399 402.558 207.035 395.059 211.032z"/>
<path style="fill:#000000; stroke:none;" d="M235.015 214.742C228.753 217.197 226.953 225.359 224.808 231C219.236 245.653 213.846 260.38 208.189 275C205.969 280.737 202.26 288.187 206.565 293.891C209.356 297.59 214.67 298.949 218.985 297.258C224.194 295.216 224.116 289.951 227.699 286.603C231.147 283.382 242.541 284.417 246.956 285.148C255.495 286.563 254.69 302.084 266.985 297.258C275.457 293.932 273.27 284.559 270.807 278C264.174 260.332 257.777 242.533 250.796 225C248.146 218.343 243.238 211.519 235.015 214.742M293.015 214.742C286.147 217.439 286.01 225.792 286 232C285.971 249.798 283.08 270.529 286.468 288C287.803 294.882 293.74 300.102 300.985 297.258C308.428 294.335 307 285.426 307 279C307 261.521 311.23 237.817 306.566 221.004C304.975 215.267 298.438 212.613 293.015 214.742z"/>
<path style="fill:#ffffff; stroke:none;" d="M238 255L235 264L243 264L238 255M121 287.769C104.695 288.932 107.173 314.319 123 312.566C138.45 310.855 136.76 286.645 121 287.769M389 287.654C372.85 289.174 375.275 314.257 391 312.566C406.77 310.869 404.851 286.161 389 287.654z"/>
<path style="fill:#000000; stroke:none;" d="M276.001 359.576C263.502 363.015 268.405 382.437 280.996 379.427C294.051 376.307 289.138 355.962 276.001 359.576z"/>
<path style="fill:#ffffff; stroke:none;" d="M175.148 371.029C168.087 375.168 174.383 386.9 181.891 382.816C190.049 378.38 183.005 366.423 175.148 371.029M330.109 370.746C322.591 373.863 327.376 385.754 334.981 383.214C343.828 380.258 338.782 367.151 330.109 370.746M29.0008 465.742C13.189 471.814 23.045 496.232 38.9992 490.106C54.8268 484.029 44.8096 459.672 29.0008 465.742M473.001 465.742C457.156 471.826 467.203 496.318 482.999 490.258C498.819 484.188 488.874 459.647 473.001 465.742M0 486L0 512L26 512L26 511C11.5539 507.569 7.14918 497.305 0 486M511 486C508.063 498.367 498.367 508.062 486 511L486 512L512 512L511 486z"/>
</svg>
